<svg xmlns="http://www.w3.org/2000/svg" width="303.9" height="80" viewBox="0 0 303.9 80"><title>Recurso 1</title><g id="Capa_2" data-name="Capa 2"><g id="Diseño"><g id="_Grupo_" data-name="&lt;Grupo&gt;"><path id="_Trazado_compuesto_" data-name="&lt;Trazado compuesto&gt;" d="M0,62.3V1.3H22.1C40.5,1.3,52.8,13,52.8,31.9S40.5,62.3,22,62.3ZM21.5,49.5c9.4,0,17.1-5.4,17.1-17.7S30.9,14.1,21.5,14.1H13.6V49.5Z"/><path id="_Trazado_compuesto_2" data-name="&lt;Trazado compuesto&gt;" d="M99.9,40.9c0,13.3-9.9,22.7-22.7,22.7S54.4,54.2,54.4,40.9s10-22.7,22.7-22.7,22.7,9.4,22.7,22.7m-13.1,0c0-7.2-4.7-10.6-9.6-10.6s-9.6,3.4-9.6,10.6,4.7,10.7,9.6,10.7,9.6-3.4,9.6-10.7"/><path id="_Trazado_" data-name="&lt;Trazado&gt;" d="M108.7,45.5a8.9,8.9,0,0,1,8.9,8.8,8.8,8.8,0,1,1-17.7,0,8.8,8.8,0,0,1,8.8-8.8"/><path id="_Trazado_compuesto_3" data-name="&lt;Trazado compuesto&gt;" d="M130.5,61.5c.9,4.1,4.3,7.1,9.2,7.1,6.5,0,10.6-3.2,10.6-10.9v-2c-1.5,2.3-5.3,4.8-11.5,4.8-11.4,0-19.9-9-19.9-20.8s8.2-20.9,19.9-20.9c7,0,10.7,3.1,11.9,5.3V19.5h12.5V57c0,12.3-6.9,23-22.9,23C128,80,120.2,72.4,119,64.8Zm19.9-21.8c0-5.9-4.2-9.5-9.1-9.5a9.1,9.1,0,0,0-9.2,9.5c0,5.9,4,9.5,9.2,9.5s9.1-3.6,9.1-9.5"/><path id="_Trazado_compuesto_4" data-name="&lt;Trazado compuesto&gt;" d="M210.5,40.9c0,13.3-9.9,22.7-22.7,22.7S165,54.2,165,40.9s10-22.7,22.7-22.7,22.7,9.4,22.7,22.7m-13.1,0c0-7.2-4.7-10.6-9.6-10.6s-9.6,3.4-9.6,10.6,4.7,10.7,9.6,10.7,9.6-3.4,9.6-10.7"/><path id="_Trazado_compuesto_5" data-name="&lt;Trazado compuesto&gt;" d="M257.1,40.9c0,13.3-9.9,22.7-22.7,22.7s-22.7-9.5-22.7-22.7,10-22.7,22.7-22.7,22.7,9.4,22.7,22.7m-13.1,0c0-7.2-4.7-10.6-9.6-10.6s-9.6,3.4-9.6,10.6,4.7,10.7,9.6,10.7,9.6-3.4,9.6-10.7"/><path id="_Trazado_compuesto_6" data-name="&lt;Trazado compuesto&gt;" d="M303.5,54.7c0,3.9.3,6.7.3,7.7H291.3a29.3,29.3,0,0,1-.3-4.1c-2,2.9-6.3,5.1-11.5,5.1-12.1,0-21.2-9.3-21.2-22.5s8.6-22.3,20.8-22.3c7.3,0,10.5,2.8,11.5,4.4V0h12.9Zm-22.4-3.1c5.1,0,9.6-3.6,9.6-10.7s-4.6-10.6-9.6-10.6-9.6,3.4-9.6,10.6,4.6,10.7,9.6,10.7"/></g></g></g></svg>